# xmcd
#
# Track frame offsets: 
#        150
#        13622
#        23125
#        35567
#        47707
#        61062
#        70405
#        82800
#        93020
#        104007
#
# Disc length: 1565 seconds
#
# Revision: 1
# Processed by: cddbd v1.5.1PL0 Copyright (c) Steve Scherf et al.
# Submitted via: ExactAudioCopy v0.95a5
#
DISCID=75061b0a
DTITLE=Tammy Wynette - Your Good Girl's Gonna Go Bad
DYEAR=1995
DGENRE=Country
TTITLE0=Apartment #9
TTITLE1=Don't Come Home A Drinkin' (With Lovin' On Your Mind)
TTITLE2=Don't Touch Me
TTITLE3=There Goes My Everything
TTITLE4=Send Me No Roses
TTITLE5=Your Good Girl's Gonna Go Bad
TTITLE6=Walk Through This World With Me
TTITLE7=I'm Not Mine To Give
TTITLE8=I Wound Easy (But I Heal Fast)
TTITLE9=Almost Persuaded
EXTD=
EXTT0=
EXTT1=
EXTT2=
EXTT3=
EXTT4=
EXTT5=
EXTT6=
EXTT7=
EXTT8=
EXTT9=
PLAYORDER=
